<svg width="79" height="54" viewBox="0 0 79 54" fill="none" xmlns="http://www.w3.org/2000/svg">
<path d="M38.9756 0.0126953H38.9961C39.0178 0.0126967 39.0392 0.0152391 39.0605 0.0166016C54.5102 0.192542 70.2192 11.0338 71.6396 27.2627L71.6963 28.041V28.0449C71.893 31.6611 71.2812 35.3244 69.8271 38.6533C71.957 36.5822 73.8803 34.2561 75.6221 31.8291L75.6357 31.8115L75.6484 31.7939C76.1111 31.2058 76.8413 30.7836 77.5547 30.8281C77.942 30.8523 78.4946 31.0506 78.7324 31.6484C78.9392 32.1691 78.767 32.6746 78.5957 33.002C78.0276 34.0872 76.8544 35.5821 75.8389 36.7959C74.8067 38.0295 73.8546 39.0677 73.6533 39.2812L73.6543 39.2822C72.8471 40.1436 72.0083 40.9716 71.1465 41.7754L71.1455 41.7744C57.6492 54.6439 35.0361 58.7999 19.3135 47.166L19.3125 47.165C14.353 43.4885 10.3642 38.3496 8.46973 32.3838V32.3828C6.68829 26.8883 6.85482 20.7283 9.14941 15.4053C9.13346 15.4208 9.11746 15.4366 9.10156 15.4521L8.61133 15.9385C6.74302 17.8201 5.02238 19.8623 3.49512 22.0352L3.4873 22.0459L3.47949 22.0557C3.24276 22.3749 2.83439 22.9444 2.33984 23.3027L2.33203 23.3086C2.06788 23.496 1.68456 23.7094 1.23633 23.6963C0.986068 23.6889 0.724137 23.6097 0.499023 23.4326C0.281248 23.2611 0.155823 23.0443 0.0878906 22.8545C-0.0385854 22.5006 -0.00666654 22.1416 0.046875 21.8857C0.105334 21.6068 0.215588 21.3239 0.362305 21.0625L0.378906 21.0332L0.397461 21.0049C8.7063 8.29344 23.5901 -0.37717 38.9756 0.0126953ZM51.9658 51.4492C52.0639 51.4221 52.1618 51.3941 52.2598 51.3662C52.1618 51.3941 52.0639 51.422 51.9658 51.4492ZM52.9238 51.1709C53.0345 51.1375 53.1454 51.1045 53.2559 51.0703C53.1454 51.1046 53.0345 51.1375 52.9238 51.1709ZM33.0234 51.0479C33.1428 51.0763 33.2631 51.1009 33.3828 51.1279C33.1939 51.0853 33.0056 51.0406 32.8174 50.9951L33.0234 51.0479ZM49.1426 50.9502C49.246 50.9272 49.349 50.9028 49.4521 50.8789C49.349 50.9029 49.246 50.9271 49.1426 50.9502ZM53.833 50.8867C53.9721 50.8415 54.1113 50.7966 54.25 50.75C54.1113 50.7966 53.9721 50.8415 53.833 50.8867ZM66.3994 21.0352C61.9735 9.51137 49.3959 2.75586 37.2637 3.1875L37.2461 3.18848H37.2314C37.2256 3.18876 37.2197 3.19024 37.2139 3.19043C34.9504 3.26236 32.6032 3.50783 30.335 3.98828C32.4984 4.55181 34.5568 5.5764 36.2393 7.16309H36.2402C39.5108 10.201 41.2554 15.3902 39.1963 19.7637C38.2671 21.9992 36.2451 23.6447 34.0498 24.3057C31.8321 24.9732 29.2872 24.6698 27.4775 22.7656C25.8559 21.1442 25.3876 18.237 26.9121 16.291C27.7844 15.1365 29.4718 14.4888 30.9727 15.0205L30.9736 15.0195C31.78 15.273 32.418 15.8921 32.749 16.6084C33.086 17.3379 33.1477 18.2808 32.6055 19.1074L32.6045 19.1064C32.1689 19.8202 31.3815 20.128 30.7012 20.1123C30.2037 20.1008 29.6388 19.9061 29.248 19.4678L29.2734 19.5566L29.2803 19.5781L29.2861 19.5996C29.4677 20.2305 29.971 20.7982 30.6104 21.1064H30.6094C31.7888 21.6694 33.1067 21.4799 34.2695 20.749C35.4448 20.0102 36.3508 18.7773 36.6396 17.4814L36.6455 17.457L36.6523 17.4336C37.2421 15.2971 36.708 12.8678 35.3916 11.0146L35.3867 11.0068C33.9542 8.94861 31.6729 7.529 29.1943 6.96484L29.1885 6.96289C23.1486 5.5496 16.6975 9.14926 13.6279 14.6064C8.87452 23.439 10.8473 32.4953 16.3496 39.3877C21.8743 46.3077 30.8994 50.9535 40.0176 50.8438H40.041C42.9206 50.8757 45.8242 50.6326 48.623 50.0391C44.173 48.8202 40.2393 45.4857 39.1924 40.79V40.7891C38.1341 36.4488 40.2279 30.9556 45.04 29.6504L45.2949 29.585C47.9427 28.9612 51.2717 29.925 52.5479 32.751C53.4935 34.7581 53.039 37.6616 50.79 38.7969L50.791 38.7979C50.7868 38.8001 50.7816 38.8015 50.7773 38.8037C50.7734 38.8057 50.7696 38.8085 50.7656 38.8105L50.7646 38.8096C49.4297 39.5035 47.5302 39.2689 46.5391 37.9238V37.9229C45.9162 37.1578 45.868 36.1541 46.1729 35.3799C46.4754 34.6124 47.1985 33.9112 48.2344 33.8965L48.4463 33.9033L48.4678 33.9053C48.9624 33.9526 49.4452 34.2052 49.7695 34.6094C49.7409 34.4215 49.6806 34.2317 49.5811 34.0566L49.5693 34.0371C48.9808 32.9461 47.8818 32.5044 46.6191 32.6338C45.3266 32.7664 44.031 33.4973 43.3271 34.541L43.3174 34.5566L43.3066 34.5713C41.8745 36.54 41.7834 38.9325 42.6514 41.1445C43.4709 43.2326 45.1231 45.0845 47.165 46.1152L47.5781 46.3096L47.585 46.3135L47.5918 46.3164C50.1001 47.4644 52.9872 47.6458 55.6436 46.9639L56.1475 46.8252C61.3019 45.3091 64.8428 41.4521 66.6396 36.7129C68.5 31.8056 68.4629 26.0068 66.4092 21.0596L66.4043 21.0469L66.3994 21.0352ZM49.9648 50.7559C50.0623 50.7316 50.1597 50.7077 50.2568 50.6826C50.1597 50.7077 50.0623 50.7317 49.9648 50.7559ZM50.9219 50.5029C51.02 50.4753 51.118 50.4475 51.2158 50.4189C51.118 50.4475 51.02 50.4753 50.9219 50.5029ZM47.7227 37.7148C47.7958 37.7717 47.8712 37.8254 47.9512 37.8721L47.7812 37.7607C47.7611 37.7462 47.7423 37.7301 47.7227 37.7148ZM47.5771 37.5908C47.6005 37.6129 47.6241 37.6344 47.6484 37.6553C47.6241 37.6345 47.6005 37.6128 47.5771 37.5908ZM47.4629 37.4746C47.4765 37.4897 47.4909 37.5039 47.5049 37.5186C47.4909 37.5039 47.4765 37.4897 47.4629 37.4746ZM42.0625 34.6533C41.9791 34.7981 41.9012 34.9443 41.8291 35.0918L41.9453 34.8652C41.9831 34.7943 42.022 34.7236 42.0625 34.6533ZM44.6621 32.168C44.6276 32.1843 44.5927 32.1998 44.5586 32.2168C44.5927 32.1998 44.6276 32.1843 44.6621 32.168ZM44.9834 32.0264C44.9488 32.0404 44.9143 32.0547 44.8799 32.0693C44.9143 32.0547 44.9488 32.0404 44.9834 32.0264ZM45.3223 31.9004C45.2836 31.9133 45.2455 31.9277 45.207 31.9414C45.2455 31.9277 45.2836 31.9133 45.3223 31.9004ZM45.6934 31.79C45.6672 31.7969 45.6413 31.8043 45.6152 31.8115C45.6413 31.8043 45.6672 31.7968 45.6934 31.79ZM46.0957 31.7012C46.0429 31.7109 45.9902 31.7211 45.9375 31.7324C45.9902 31.7212 46.0429 31.7108 46.0957 31.7012ZM46.4248 31.6504C46.3779 31.656 46.3311 31.663 46.2842 31.6699C46.3311 31.663 46.3779 31.656 46.4248 31.6504ZM46.79 31.6201C46.7624 31.6215 46.7347 31.6222 46.707 31.624C46.7347 31.6222 46.7624 31.6215 46.79 31.6201ZM43.207 31.6084C43.201 31.6127 43.1955 31.6177 43.1895 31.6221C43.2141 31.6044 43.2388 31.5867 43.2637 31.5693C43.2449 31.5825 43.2257 31.5951 43.207 31.6084ZM43.5508 31.3789C43.5244 31.3954 43.4988 31.4129 43.4727 31.4297C43.4988 31.4129 43.5244 31.3954 43.5508 31.3789ZM45.7578 30.5078C45.6063 30.5369 45.4563 30.572 45.3086 30.6133C45.0489 30.6834 44.798 30.769 44.5557 30.8672L44.9258 30.7305C45.0513 30.6883 45.1788 30.6493 45.3086 30.6143C45.4563 30.573 45.6062 30.5371 45.7578 30.5078ZM68.5264 24.5752C68.48 24.3504 68.4291 24.1266 68.376 23.9033C68.4292 24.1266 68.48 24.3504 68.5264 24.5752ZM68.1875 23.165C68.2449 23.373 68.2975 23.5823 68.3486 23.792C68.2561 23.4118 68.1552 23.0336 68.042 22.6592L68.1875 23.165ZM32.0938 22.4316C32.1358 22.4312 32.1778 22.4313 32.2197 22.4297C32.1778 22.4312 32.1358 22.4312 32.0938 22.4316ZM31.7656 22.4219C31.8096 22.4247 31.8535 22.4281 31.8975 22.4297C31.8535 22.4282 31.8096 22.4248 31.7656 22.4219ZM32.4336 22.415C32.4668 22.4122 32.5001 22.4108 32.5332 22.4072C32.5001 22.4107 32.4668 22.4122 32.4336 22.415ZM31.4424 22.3896C31.4896 22.3963 31.5368 22.4021 31.584 22.4072C31.5368 22.4021 31.4896 22.3963 31.4424 22.3896ZM31.1162 22.3301C31.165 22.3409 31.2138 22.3503 31.2627 22.3594C31.2138 22.3503 31.165 22.3409 31.1162 22.3301ZM30.4482 22.124C30.486 22.1391 30.5236 22.1541 30.5615 22.168C30.5236 22.154 30.486 22.1391 30.4482 22.124ZM30.1758 22.0078C30.1962 22.0176 30.2178 22.0248 30.2383 22.0342C30.2177 22.0247 30.1963 22.0167 30.1758 22.0068C30.1216 21.9807 30.0677 21.9536 30.0146 21.9248L30.1758 22.0078ZM30.7021 18.2764L30.7031 18.2773C30.7176 18.2789 30.7279 18.2764 30.7354 18.2734C30.7278 18.2762 30.7171 18.278 30.7021 18.2764ZM30.7383 18.2715C30.7444 18.2681 30.7458 18.2648 30.7461 18.2588C30.746 18.2649 30.7443 18.2683 30.7383 18.2715ZM30.7471 18.2559C30.7464 18.249 30.7441 18.2408 30.7373 18.2324H30.7363C30.7433 18.2409 30.7463 18.2489 30.7471 18.2559ZM30.6738 15.9746C30.7377 15.9947 30.8002 16.0185 30.8613 16.0459C30.8002 16.0185 30.7377 15.9937 30.6738 15.9736C30.6082 15.9492 30.5417 15.9281 30.4746 15.9102C30.5417 15.9281 30.6082 15.9501 30.6738 15.9746ZM16.9072 6.81543H16.9082C17.1108 6.69897 17.3143 6.58404 17.5186 6.4707H17.5176C17.3133 6.58404 17.1098 6.69897 16.9072 6.81543ZM31.3896 6.62109C31.2399 6.5585 31.0886 6.49981 30.9365 6.44336C31.0887 6.49973 31.2399 6.5585 31.3896 6.62109ZM30.8447 6.41016C30.7259 6.36715 30.6064 6.32635 30.4863 6.28711C30.6064 6.32634 30.7259 6.36722 30.8447 6.41016ZM30.375 6.25098C30.2237 6.20315 30.0719 6.15704 29.9189 6.11523H29.918C30.0712 6.15711 30.2234 6.20303 30.375 6.25098ZM28.7988 5.86133C28.9018 5.88004 29.0046 5.9005 29.1074 5.92188H29.1084C29.0052 5.90042 28.9021 5.88015 28.7988 5.86133ZM38.1797 2.25C38.1815 2.22333 38.1829 2.19675 38.1826 2.16992H38.1807C38.1811 2.19673 38.1814 2.22333 38.1797 2.25Z" fill="black"/>
</svg>
