<svg width="114" height="53" viewBox="0 0 114 53" fill="none" xmlns="http://www.w3.org/2000/svg">
<path d="M35.8994 0.0166016H36.957V0.0576172C42.0171 0.319338 47.064 1.80925 51.249 4.25293L51.8203 4.59277C53.143 5.39931 54.4007 6.30368 55.6133 7.32129L55.6143 7.32227C55.8559 7.52528 56.0823 7.7081 56.3018 7.84277C56.532 7.98398 56.6555 8.00878 56.6914 8.00977H56.7061L56.7217 8.01074C56.8188 8.01622 57.0491 7.95324 57.501 7.60938C57.7067 7.45278 57.9103 7.27674 58.1396 7.08105C58.3449 6.906 58.579 6.7085 58.8145 6.54004C60.5804 5.17446 62.3539 4.09764 64.1572 3.21777C69.8379 0.448661 76.3128 -0.525614 82.6025 0.299805L82.6016 0.300781C97.5567 2.06111 110.254 14.5992 113.238 29.3652L113.373 30.0703L113.379 30.1045L113.383 30.1387C113.459 30.8333 113.47 31.4357 113.343 31.8721C113.286 32.0673 113.121 32.5087 112.64 32.7139C112.099 32.9445 111.644 32.6871 111.46 32.5498C111.103 32.2825 110.862 31.8369 110.716 31.5039C110.551 31.1293 110.414 30.6809 110.337 30.2197L110.336 30.2207C107.057 13.5596 91.1407 0.853324 74.1221 3.30273L74.1143 3.30371C69.0402 3.99592 64.0124 6.10795 59.9648 9.47266L59.9463 9.48828L59.9268 9.50293C59.2974 9.97581 59.1511 10.296 59.1279 10.4619C59.1114 10.581 59.1316 10.8282 59.4746 11.2588L59.6426 11.4551L59.666 11.4814L59.6885 11.5088C62.5413 15.1216 64.3768 19.14 65.2314 23.4902C65.4896 23.1565 65.7879 22.7955 66.1377 22.4736L66.584 22.0703C71.2253 18.0252 77.0115 17.876 81.6807 20.1943C86.3264 22.5013 89.9179 27.2698 90.2725 33.1152L90.2969 33.6846V33.6865C90.4806 41.9898 85.548 48.1023 79.0078 50.9131C72.4872 53.7153 64.3041 53.2722 57.8408 48.4844L57.8252 48.4736L57.8105 48.4619C57.3102 48.0618 56.9723 47.9718 56.7266 47.9785C56.4672 47.9858 56.1129 48.1055 55.5967 48.5146L55.5742 48.5322L55.5508 48.5488C48.6771 53.3756 39.9869 54.066 32.7725 50.126L32.7666 50.123C25.5159 46.1014 21.6847 38.036 23.709 30.1641C25.0801 24.561 29.4525 20.5933 34.3867 19.2295C39.1765 17.9058 44.5569 19.026 48.25 23.5049C49.0939 19.1414 50.9393 15.1338 53.7881 11.5156L53.7969 11.5039L53.8066 11.4932C54.1033 11.1381 54.2826 10.8564 54.3477 10.6338C54.3756 10.5382 54.3749 10.4761 54.3672 10.4336C54.36 10.3943 54.3379 10.3229 54.252 10.2178H54.251C53.4902 9.32568 52.4776 8.66881 51.3203 7.8457L50.7559 7.47656C47.9195 5.66812 44.8343 4.42948 41.7002 3.73535L41.6924 3.7334C26.1403 0.157867 10.101 10.0336 4.71289 24.8115L4.70996 24.8193L4.70703 24.8281C4.0111 26.6359 3.47596 28.5632 3.0459 30.5273L3.04004 30.5488C2.93447 30.9836 2.79298 31.399 2.63086 31.7373C2.55057 31.9048 2.45364 32.078 2.33789 32.2314C2.25104 32.3465 2.07947 32.55 1.8125 32.6807C1.81108 32.6814 1.81002 32.6829 1.80859 32.6836C1.78306 32.696 1.75678 32.7089 1.72949 32.7197L1.72852 32.7178C1.38279 32.8612 0.97375 32.8423 0.631836 32.6035C0.345068 32.4031 0.212804 32.1215 0.151367 31.959C0.0195017 31.6097 -0.0118703 31.1899 0.00292969 30.8008L0.00488281 30.7715C0.0675208 29.8424 0.32332 28.9012 0.508789 28.1387C4.23686 12.1504 19.393 -0.52598 35.8994 0.0166016ZM67.0938 50.3896C67.2881 50.4215 67.4829 50.4494 67.6777 50.4756C67.288 50.4233 66.8991 50.3602 66.5117 50.2852L67.0938 50.3896ZM37.8877 21.6719L37.8799 21.6768L37.6582 21.6826C31.0218 21.859 25.7001 28.0715 25.9893 34.6465L26.0068 34.96L26.0078 34.9678V34.9766C26.3156 40.6517 29.6421 45.0095 34.209 47.4688C38.791 49.9361 44.5648 50.4542 49.625 48.458L49.6426 48.4521C51.2564 47.8494 52.8178 47.0371 54.2109 46.0488L54.2227 46.041L54.2354 46.0322C54.6608 45.7484 54.6631 45.5787 54.6631 45.5781C54.6646 45.5497 54.6546 45.3563 54.291 44.9902L54.2559 44.9531C52.0663 42.5093 50.4177 39.7077 49.3379 36.5488C47.4824 39.2547 44.4884 40.7949 41.5127 40.9668C38.0967 41.1641 34.6423 39.5536 32.9912 35.8154L32.9893 35.8115C31.8413 33.181 32.503 30.3399 34.1104 28.4043C35.6779 26.5169 38.2195 25.408 40.9658 26.2061L41.2324 26.29L41.2373 26.291C44.2289 27.3079 45.7043 30.1857 45.0059 32.8369L45.0049 32.8359C44.5179 34.9803 42.6233 36.1968 40.8018 36.373C38.934 36.5536 36.8664 35.6562 36.2344 33.335L36.2354 33.334C35.7924 31.7611 36.5123 30.3255 37.5752 29.5254C37.7721 29.3772 37.9869 29.2463 38.2148 29.1377C37.9245 29.2243 37.6437 29.348 37.3857 29.5146C36.2857 30.2969 35.7418 31.2247 35.5596 32.1387C35.3736 33.072 35.5498 34.0743 36.0371 34.999C37.0223 36.868 39.1811 38.2522 41.6357 37.9443L41.666 37.9404L41.6973 37.9385C44.3185 37.7717 47.0201 35.518 47.7168 32.8037L47.7197 32.79L47.7236 32.7764C48.5726 29.8214 47.6398 26.9938 45.6953 24.9082C43.7629 22.8357 40.8719 21.5489 37.8877 21.6719ZM75.1865 21.6875H74.7334C71.1894 21.8055 68.1079 23.8664 66.5293 26.6279C64.9208 29.4421 64.8898 32.936 67.5234 35.876C68.9526 37.441 71.105 38.1415 73.1133 37.9121C75.1068 37.6843 76.8709 36.5568 77.6533 34.543L77.6592 34.5293L77.665 34.5146C78.3342 32.9361 77.865 31.24 76.792 30.1289C76.356 29.6775 75.8374 29.3409 75.2744 29.1533C75.6079 29.317 75.914 29.5301 76.1787 29.7783C77.2132 30.7485 77.7635 32.3771 77.0107 33.9746L77.0117 33.9756C76.2143 35.7879 74.423 36.4973 72.7939 36.3945C71.1933 36.2933 69.5124 35.4004 68.7852 33.7275V33.7285L68.7695 33.6934V33.6924C67.3299 30.5714 69.1961 27.0491 72.7178 26.1553L73.0654 26.0771C75.5957 25.5653 77.9071 26.6716 79.3662 28.4248C80.8216 30.1739 81.5131 32.6622 80.7334 35.0547L80.7324 35.0566C79.3969 39.1364 75.915 41.0398 72.374 40.9922C69.2722 40.9503 66.0742 39.4185 64.1211 36.5527C63.2423 39.1241 61.9724 41.4843 60.3545 43.5762L60.3555 43.5771C60.0748 43.9622 59.7165 44.3502 59.4561 44.6484C59.1654 44.9812 58.9721 45.2275 58.8652 45.4355C58.8163 45.5309 58.801 45.5898 58.7969 45.6182C58.794 45.6383 58.796 45.644 58.7979 45.6494C58.8037 45.6665 58.8606 45.8058 59.1855 46.0312L59.3418 46.1328L59.3721 46.1514L59.4023 46.1729C64.4816 49.8289 71.0304 50.517 76.5439 48.666C82.0397 46.8209 86.4308 42.4865 87.3516 36.1289L87.3525 36.1221C88.4793 28.7318 82.662 21.536 75.1865 21.6875ZM54.79 46.8643C54.6064 46.9945 54.4202 47.1218 54.2314 47.2461C54.0428 47.3703 53.8515 47.4913 53.6582 47.6094H53.6592C53.8521 47.4915 54.0431 47.371 54.2314 47.2471C54.4202 47.1229 54.6064 46.9955 54.79 46.8652C54.8606 46.8182 54.9265 46.7699 54.9883 46.7217C54.9266 46.7698 54.8605 46.8173 54.79 46.8643ZM58.8184 46.9854C58.9859 47.1059 59.1548 47.2235 59.3252 47.3379L59.3242 47.3369C59.1541 47.2226 58.9847 47.1048 58.8174 46.9844L58.8184 46.9854ZM82.7822 46.3271C82.6383 46.4482 82.4927 46.5674 82.3447 46.6836L82.7822 46.3281C82.9263 46.2069 83.0681 46.0831 83.208 45.957L82.7822 46.3271ZM56.625 11.96C56.5296 12.043 56.415 12.1642 56.2861 12.3281L56.2871 12.3291C54.6026 14.484 53.2651 16.9059 52.3301 19.4727L52.3291 19.4756C49.8166 26.2974 50.329 34.1907 54.1357 40.4277C54.9408 41.6733 55.5306 42.5429 56.0176 43.1035C56.2589 43.3813 56.4408 43.5417 56.5732 43.6289C56.636 43.6701 56.6789 43.6893 56.7021 43.6973C56.713 43.701 56.7202 43.7025 56.7236 43.7031H56.7324C56.7355 43.7026 56.7423 43.7017 56.7529 43.6982C56.7749 43.691 56.8159 43.6728 56.8779 43.6328C57.0088 43.5484 57.1903 43.3909 57.4326 43.1143C57.9217 42.556 58.5158 41.6825 59.3281 40.4229C63.5121 33.5685 63.6998 24.8006 60.3242 17.5127H60.3232C60.0014 16.8591 59.2169 15.2739 58.3408 13.9014C57.894 13.2014 57.4542 12.6064 57.0693 12.2217C56.9045 12.0569 56.7772 11.96 56.6914 11.9082C56.6731 11.9217 56.6504 11.9379 56.625 11.96ZM41.7607 38.9375C42.0009 38.9222 42.2407 38.8913 42.4795 38.8477C42.2407 38.8911 42.0008 38.9212 41.7607 38.9365C41.6695 38.948 41.5787 38.9583 41.4883 38.9658C41.5787 38.9583 41.6696 38.9489 41.7607 38.9375ZM40.1689 38.9375C40.2331 38.9453 40.2975 38.9531 40.3623 38.959C40.2975 38.953 40.2331 38.9454 40.1689 38.9375ZM39.7676 38.876C39.8369 38.889 39.9064 38.9014 39.9766 38.9121C39.9065 38.9013 39.8369 38.889 39.7676 38.876ZM39.3838 38.791C39.4599 38.8102 39.5361 38.8293 39.6133 38.8457C39.5361 38.8292 39.4598 38.8102 39.3838 38.791ZM39.1699 38.7363C39.1944 38.7434 39.2195 38.7481 39.2441 38.7549C39.1383 38.7256 39.0332 38.6955 38.9297 38.6611L39.1699 38.7363ZM36.1299 38.3535C36.1577 38.3757 36.1868 38.3962 36.2148 38.418C36.1105 38.3371 36.0069 38.2544 35.9062 38.167L36.1299 38.3535ZM48.0039 34.75C47.9083 34.923 47.8059 35.0928 47.6973 35.2588H47.6982C47.8068 35.0929 47.9083 34.9229 48.0039 34.75ZM48.0537 34.6572C48.0829 34.6028 48.1118 34.5483 48.1396 34.4932C48.1119 34.5483 48.0829 34.6028 48.0537 34.6572ZM48.29 34.1738C48.3474 34.0456 48.4015 33.9162 48.4512 33.7852C48.4013 33.9161 48.3474 34.0456 48.29 34.1738ZM49.0117 31.2383C49.005 31.3256 48.9986 31.4132 48.9893 31.501C48.9784 31.6033 48.9658 31.7058 48.9512 31.8086C48.9219 32.0144 48.8852 32.2211 48.8408 32.4287C48.8186 32.5324 48.7946 32.6362 48.7686 32.7402C48.7425 32.8442 48.7145 32.9484 48.6846 33.0527C48.668 33.1175 48.6494 33.1819 48.6309 33.2461C48.6494 33.1817 48.6689 33.1176 48.6855 33.0527C48.8613 32.4411 48.9664 31.8347 49.0117 31.2383ZM38.3242 31.8027C38.3164 31.8252 38.3075 31.8473 38.3008 31.8701C38.3076 31.8473 38.3164 31.8252 38.3242 31.8027ZM38.3906 31.6416C38.3807 31.6618 38.3722 31.6825 38.3633 31.7031C38.3722 31.6825 38.3807 31.6618 38.3906 31.6416ZM38.499 31.459C38.4864 31.477 38.4726 31.4942 38.4609 31.5127C38.4726 31.4942 38.4864 31.477 38.499 31.459ZM38.5986 31.332C38.5894 31.3424 38.5802 31.3527 38.5713 31.3633C38.5802 31.3527 38.5894 31.3424 38.5986 31.332ZM39.3027 30.9014C39.0603 30.9725 38.8626 31.0857 38.7051 31.2266C38.7537 31.1832 38.8058 31.1421 38.8623 31.1045C38.9889 31.0203 39.1353 30.9515 39.3027 30.9023V30.9014ZM40.2002 30.9326L40.2666 30.9395C40.2636 30.9477 40.1741 30.9262 40.0557 30.9072C40.1126 30.9164 40.163 30.9259 40.2002 30.9326ZM72.0439 30.5977C72.0267 30.6177 72.0123 30.6397 71.9961 30.6602C72.0222 30.6272 72.0488 30.5939 72.0771 30.5615L72.0439 30.5977ZM49.0391 30.5869L49.0342 30.2861C49.0329 30.2476 49.0302 30.2093 49.0283 30.1709C49.0349 30.3089 49.0392 30.4476 49.0391 30.5869ZM72.5215 30.1875C72.4579 30.2282 72.3983 30.2712 72.3418 30.3154L72.5215 30.1885C72.5858 30.1459 72.6504 30.1065 72.7158 30.0713C72.6506 30.1064 72.5857 30.145 72.5215 30.1875ZM42.0439 29.0947C42.0878 29.1375 42.131 29.1813 42.1729 29.2266C42.2346 29.285 42.2925 29.3456 42.3477 29.4072V29.4062C42.2927 29.3448 42.2344 29.2849 42.1729 29.2266C42.1308 29.1811 42.0879 29.1367 42.0439 29.0938V29.0947ZM49.8232 26.7324C49.8117 26.9433 49.8023 27.1542 49.7959 27.3652C49.8024 27.1542 49.8116 26.9433 49.8232 26.7324ZM47.9619 26.3623C48.0077 26.4478 48.0516 26.5343 48.0947 26.6211C48.181 26.7948 48.2626 26.9708 48.3379 27.1494L48.2207 26.8828C48.0994 26.6185 47.9656 26.3599 47.8203 26.1074C47.8688 26.1917 47.9161 26.2766 47.9619 26.3623ZM40.6221 27.1494C40.5918 27.141 40.5615 27.1329 40.5312 27.125C40.5615 27.1329 40.5918 27.141 40.6221 27.1494ZM73.2607 27.0576C73.1609 27.0775 73.0625 27.0996 72.9658 27.124C73.0624 27.0996 73.161 27.0784 73.2607 27.0586C73.3926 27.0318 73.5237 27.0096 73.6543 26.9932L73.2607 27.0576ZM40.0254 27.0166C40.1068 27.03 40.1885 27.0452 40.2705 27.0625C40.2627 27.0609 40.2549 27.0592 40.2471 27.0576C40.1733 27.0424 40.0997 27.0287 40.0264 27.0166H40.0254ZM49.8711 26.0195C49.8538 26.2293 49.8403 26.4393 49.8281 26.6494C49.8404 26.439 49.8547 26.2287 49.8721 26.0186L49.8711 26.0195ZM48.624 25.4199L48.666 25.417C48.6464 25.4204 48.626 25.4202 48.6045 25.417C48.6111 25.418 48.6175 25.4196 48.624 25.4199ZM48.5312 25.3955C48.5544 25.4057 48.5766 25.4121 48.5977 25.416C48.5765 25.4123 48.5544 25.4057 48.5312 25.3955ZM48.9473 25.0264C48.9313 25.076 48.9141 25.1216 48.8965 25.1631C48.8786 25.2049 48.8607 25.2428 48.8408 25.2754C48.9035 25.1736 48.9526 25.0225 48.999 24.8389C48.9821 24.9059 48.9658 24.9689 48.9473 25.0264ZM49.0742 24.5059C49.103 24.3642 49.1323 24.2121 49.1631 24.0537V24.0527C49.1323 24.2114 49.1031 24.3639 49.0742 24.5059ZM32.9502 20.7852C32.8113 20.8436 32.6734 20.9048 32.5361 20.9678L32.9512 20.7852C33.0901 20.7267 33.2297 20.6701 33.3701 20.6162L32.9502 20.7852ZM50.9375 20.4717C50.8928 20.6172 50.8517 20.7639 50.8096 20.9102C50.917 20.5371 51.0311 20.1658 51.1553 19.7979L50.9375 20.4717ZM53.9824 13.8633C53.8818 14.0218 53.7828 14.1813 53.6855 14.3418L53.6865 14.3408C53.7836 14.1807 53.8821 14.0214 53.9824 13.8633ZM54.5977 12.9404C54.5016 13.0788 54.4059 13.2173 54.3125 13.3574C54.4059 13.2173 54.5016 13.0788 54.5977 12.9404ZM55.1758 12.1357C55.0303 12.3296 54.8882 12.5259 54.748 12.7236C54.8881 12.5259 55.0303 12.3296 55.1758 12.1357ZM58.2568 9.90918H58.2578C58.2878 9.84084 58.3224 9.77278 58.3623 9.70508H58.3613C58.3215 9.77275 58.2867 9.84086 58.2568 9.90918ZM56.4434 8.98242C56.4785 8.98997 56.5138 8.99547 56.5488 9C56.4768 8.99069 56.4044 8.97461 56.332 8.95312L56.4434 8.98242ZM57.207 8.92383C57.2102 8.92272 57.2136 8.92202 57.2168 8.9209C57.2136 8.92203 57.2102 8.92272 57.207 8.92383ZM57.3086 8.88379C57.3552 8.8648 57.4019 8.84485 57.4482 8.82227C57.4019 8.8449 57.3551 8.86475 57.3086 8.88379ZM57.5273 8.78223C57.5815 8.75358 57.6356 8.72309 57.6895 8.69043C57.6356 8.72314 57.5815 8.75352 57.5273 8.78223ZM58.1602 8.3623C58.0837 8.42163 58.0072 8.47963 57.9297 8.53418C57.858 8.58469 57.7854 8.63196 57.7129 8.67676C57.8637 8.58369 58.0129 8.47648 58.1602 8.3623ZM61.3525 5.95801C60.7087 6.37953 60.0668 6.83541 59.4258 7.33105C59.0929 7.56434 58.7329 7.89485 58.3584 8.20215C58.7331 7.89504 59.0939 7.56533 59.4268 7.33203C60.0677 6.83642 60.7089 6.37955 61.3525 5.95801ZM71.5254 2.75586C71.1997 2.82902 70.8747 2.9078 70.5508 2.99219L71.0381 2.87012C71.2003 2.83078 71.3627 2.7924 71.5254 2.75586ZM48.1738 34.4229C48.2096 34.3501 48.244 34.2769 48.2773 34.2031C48.244 34.2769 48.2096 34.3501 48.1738 34.4229ZM49.0166 31.1885C49.0236 31.0886 49.0296 30.989 49.0332 30.8896C49.0296 30.989 49.0237 31.0886 49.0166 31.1885ZM54.1533 13.5977C54.0959 13.6859 54.0388 13.7744 53.9824 13.8633C54.0388 13.7744 54.0959 13.6859 54.1533 13.5977Z" fill="black"/>
</svg>
