<svg width="16" height="35" viewBox="0 0 16 35" fill="none" xmlns="http://www.w3.org/2000/svg">
<path d="M15.1065 34.0859C14.92 33.9791 14.7057 33.8564 14.4655 33.7189C14.2289 33.5731 13.9668 33.4114 13.6817 33.2353C13.4041 33.0462 13.0942 32.8571 12.7813 32.6268C12.6144 32.5106 12.4436 32.3879 12.2698 32.2584C12.2715 32.2338 12.2736 32.2031 12.276 32.1674C12.2801 32.123 12.2794 32.0689 12.2815 32.0122C12.2815 32.0119 12.2815 32.0115 12.2815 32.0111C12.3018 32.0126 12.3317 32.0075 12.3698 31.9949C12.4735 31.9595 12.6339 31.8704 12.8016 31.73C12.9256 31.6257 13.0537 31.4933 13.165 31.3341C13.5178 30.865 13.7263 30.158 13.8184 29.2937C13.8218 29.2648 13.8252 29.2363 13.828 29.2074C13.8998 28.3691 13.5092 27.5665 13.2334 26.9833C13.1245 26.7725 13.0304 26.5903 12.9493 26.4423C12.8407 26.2424 12.7559 26.1049 12.6917 26.045C12.6669 26.0219 12.6449 26.01 12.626 26.0107C12.5295 26.0046 12.3148 26.1731 12.1132 26.469C12.0386 26.5784 11.9658 26.7058 11.9019 26.848C11.6481 27.3741 11.51 28.1096 11.4378 28.9018C11.4354 28.9313 11.4337 28.9613 11.432 28.9909C11.3935 29.748 11.6206 30.4741 11.7937 31.0191C11.8487 31.1768 11.8985 31.3193 11.9459 31.4438C12.0472 31.7127 12.1338 31.8993 12.2173 31.9758C12.2159 31.9859 12.2145 31.9964 12.2131 32.0065C12.2056 32.0617 12.2008 32.1118 12.1922 32.1566C12.1898 32.1703 12.1877 32.1829 12.1857 32.1948C11.7202 31.8451 11.2324 31.4492 10.733 31.005C10.2624 30.586 9.78281 30.1219 9.3074 29.6127C9.31117 29.5939 9.31564 29.5723 9.32079 29.5488C9.33075 29.5055 9.33763 29.4517 9.34724 29.3962C9.34724 29.3962 9.34724 29.3954 9.34724 29.3951C9.36682 29.3998 9.39705 29.3991 9.43655 29.3922C9.54407 29.3731 9.71514 29.3088 9.90029 29.1952C10.0374 29.1111 10.182 28.9992 10.3142 28.8585C10.7275 28.447 11.0301 27.779 11.2393 26.9371C11.2469 26.9093 11.2537 26.8812 11.2606 26.853C11.4464 26.0342 11.1696 25.181 10.9762 24.5625C10.8972 24.3376 10.8288 24.1431 10.769 23.9843C10.6886 23.77 10.6237 23.6213 10.5684 23.552C10.5471 23.5253 10.5272 23.5101 10.5083 23.5083C10.4135 23.4878 10.1778 23.622 9.93808 23.8847C9.84945 23.9818 9.7598 24.0969 9.67701 24.2279C9.35411 24.7104 9.11709 25.4174 8.93709 26.1904C8.93091 26.2197 8.92473 26.2489 8.91923 26.2778C8.7777 27.0212 8.90308 27.774 8.99995 28.3395C9.03293 28.5041 9.06282 28.6524 9.0927 28.783C9.15625 29.0645 9.21637 29.2619 9.2885 29.3503C9.28575 29.3604 9.28301 29.3702 9.28026 29.3799C9.26514 29.4333 9.25346 29.4824 9.23869 29.5254C9.23766 29.529 9.23629 29.5326 9.23526 29.5362C9.0106 29.293 8.78698 29.0393 8.5661 28.7751C7.94641 28.0324 7.35214 27.2031 6.8087 26.3001C6.81386 26.2868 6.81901 26.2731 6.82485 26.2583C6.84168 26.2171 6.8568 26.1652 6.875 26.1121C6.875 26.1118 6.875 26.1114 6.87535 26.111C6.89424 26.119 6.92378 26.1237 6.96397 26.1237C7.07286 26.1233 7.25183 26.0897 7.4521 26.0093C7.6005 25.9497 7.76057 25.8645 7.91275 25.7483C8.38439 25.4138 8.78767 24.8068 9.12534 24.0125C9.13701 23.9865 9.14869 23.9598 9.15969 23.9334C9.47056 23.1572 9.33041 22.2683 9.23629 21.6245C9.19335 21.3892 9.1566 21.1853 9.12224 21.0186C9.07656 20.7934 9.03568 20.6353 8.99171 20.5574C8.97488 20.5274 8.95736 20.509 8.93915 20.504C8.84881 20.4675 8.59564 20.5595 8.31774 20.7771C8.21503 20.8576 8.10889 20.9558 8.00652 21.0709C7.61252 21.4913 7.26832 22.1478 6.9705 22.8793C6.95985 22.9071 6.9492 22.9349 6.93924 22.9627C6.68367 23.6714 6.68985 24.4354 6.69741 25.0107C6.70428 25.1781 6.71046 25.3301 6.71939 25.4636C6.73829 25.7523 6.7668 25.9573 6.82416 26.0569C6.8197 26.0663 6.81558 26.0757 6.81145 26.0847C6.7905 26.1298 6.77298 26.1717 6.75409 26.2085C6.69363 26.1067 6.63351 26.0042 6.57409 25.9003C6.27489 25.3687 5.99493 24.8133 5.73558 24.2384C5.48241 23.6606 5.25089 23.0637 5.04719 22.4506C5.04066 22.4307 5.03448 22.4109 5.02829 22.391C5.03482 22.3806 5.04203 22.3694 5.04959 22.3575C5.07398 22.321 5.09906 22.2734 5.12722 22.225C5.12722 22.225 5.12757 22.2243 5.12791 22.2239C5.14474 22.2358 5.17291 22.2467 5.21241 22.2553C5.31925 22.2781 5.50062 22.2835 5.71256 22.2478C5.8692 22.221 6.04268 22.172 6.21409 22.0908C6.74103 21.8641 7.25321 21.3564 7.73756 20.6508C7.75404 20.6277 7.77053 20.6046 7.78633 20.5808C8.24114 19.8876 8.27652 18.9868 8.30916 18.3368C8.31293 18.0972 8.31603 17.8901 8.31465 17.719C8.31362 17.4888 8.304 17.3253 8.27652 17.2397C8.26587 17.2065 8.25248 17.1849 8.23565 17.1762C8.15423 17.1207 7.8887 17.1567 7.57439 17.3105C7.45828 17.3675 7.33531 17.4408 7.21302 17.5313C6.74584 17.8587 6.28142 18.4278 5.84791 19.0799C5.83211 19.1048 5.8163 19.1297 5.80119 19.155C5.41337 19.7941 5.2715 20.5436 5.16741 21.1081C5.14131 21.2734 5.11829 21.4235 5.10112 21.5563C5.06367 21.8428 5.05165 22.05 5.08841 22.1597C5.08222 22.168 5.07638 22.1763 5.07054 22.1842C5.04341 22.2214 5.01936 22.2564 4.99532 22.2871C4.62158 21.1081 4.34986 19.8731 4.20627 18.6194C4.18291 18.4126 4.16299 18.2055 4.14582 17.998C4.15956 17.9832 4.18944 17.9507 4.22929 17.9077C4.25711 17.8789 4.28768 17.8403 4.32101 17.8013C4.32101 17.8013 4.32135 17.8009 4.32169 17.8006C4.33509 17.8143 4.35914 17.8291 4.39349 17.8442C4.48658 17.8839 4.65043 17.9215 4.84864 17.9265C4.99532 17.9305 5.16054 17.9168 5.32955 17.8738C5.84413 17.7623 6.39134 17.3931 6.94542 16.8395C6.96397 16.8215 6.98252 16.8031 7.00107 16.7847C7.52595 16.2368 7.70389 15.4259 7.83889 14.8417C7.88114 14.6251 7.91755 14.4375 7.94401 14.2823C7.98042 14.073 7.99828 13.9232 7.98694 13.8402C7.98248 13.8084 7.97389 13.7864 7.96015 13.7752C7.89523 13.7103 7.64859 13.6955 7.3384 13.7788C7.22366 13.8095 7.10069 13.8543 6.97462 13.9149C6.49783 14.1282 5.98428 14.5616 5.48516 15.0762C5.46661 15.0957 5.4484 15.1156 5.43054 15.1358C4.97505 15.6468 4.72497 16.3014 4.53879 16.7948C4.4883 16.9402 4.44329 17.0723 4.40585 17.1899C4.32547 17.4433 4.28116 17.6291 4.29662 17.7352C4.28975 17.7417 4.28288 17.7479 4.27635 17.7544C4.23994 17.7886 4.20799 17.8211 4.17639 17.8471C4.16162 17.8597 4.14856 17.8713 4.13654 17.8818C4.0541 16.8114 4.0541 15.7356 4.12383 14.68C4.14788 14.3195 4.1812 13.9611 4.22276 13.606C4.24165 13.5941 4.27223 13.5753 4.3107 13.5511C4.34368 13.5316 4.38112 13.5039 4.42165 13.4764C4.42165 13.4764 4.42234 13.4764 4.42234 13.4761C4.43162 13.4923 4.45051 13.5125 4.47868 13.5353C4.55597 13.597 4.69955 13.6749 4.88264 13.7319C5.01833 13.7742 5.17531 13.8052 5.34295 13.8095C5.84894 13.8416 6.44665 13.6421 7.09485 13.2729C7.11649 13.2613 7.13813 13.2491 7.15977 13.2364C7.77946 12.8647 8.13912 12.1567 8.40431 11.6482C8.49534 11.4576 8.57435 11.2927 8.63583 11.1552C8.71965 10.9701 8.77186 10.8351 8.78114 10.7554C8.78492 10.7243 8.78183 10.7016 8.77152 10.6875C8.72652 10.6103 8.50015 10.5312 8.19168 10.5273C8.07763 10.5255 7.95225 10.5349 7.82034 10.5579C7.32534 10.6308 6.74344 10.899 6.15569 11.2465C6.13405 11.2599 6.11207 11.2736 6.09077 11.2877C5.54459 11.6431 5.15505 12.187 4.86409 12.5973C4.78234 12.7197 4.70883 12.8308 4.64597 12.9304C4.51062 13.1451 4.42509 13.3065 4.4141 13.4093C4.4062 13.4133 4.39829 13.4176 4.39074 13.4219C4.34849 13.4443 4.31104 13.4663 4.27566 13.4818C4.26089 13.4887 4.24784 13.4952 4.23547 13.5013C4.34368 12.6132 4.5041 11.7453 4.7102 10.9102C4.81566 10.4822 4.93348 10.0635 5.06093 9.65393C5.07329 9.64779 5.08703 9.6413 5.1018 9.63408C5.13615 9.6182 5.17635 9.59438 5.21928 9.57165C5.21928 9.57165 5.21997 9.57165 5.21997 9.57129C5.22753 9.58861 5.24436 9.61062 5.27012 9.63661C5.34089 9.70626 5.47623 9.79901 5.65279 9.87551C5.78367 9.93217 5.93688 9.98017 6.10314 10.0022C6.60329 10.0884 7.21748 9.95455 7.89832 9.65682C7.92099 9.64743 7.94366 9.63769 7.96633 9.62758C8.61866 9.3248 9.04564 8.65897 9.35927 8.18152C9.4685 8.00179 9.56297 7.84625 9.63785 7.71597C9.73919 7.54058 9.80445 7.41211 9.82163 7.33344C9.82816 7.30312 9.82781 7.28002 9.81888 7.26523C9.78178 7.18367 9.56434 7.08045 9.25759 7.04328C9.14423 7.02921 9.0185 7.02488 8.88522 7.03354C8.38576 7.05267 7.78084 7.25693 7.16218 7.53914C7.13916 7.54997 7.11615 7.56151 7.09347 7.57306C6.51535 7.86791 6.07497 8.36665 5.74554 8.74378C5.65245 8.85673 5.56829 8.95922 5.49581 9.05161C5.3402 9.25046 5.23921 9.40167 5.2186 9.50272C5.21035 9.50597 5.20211 9.50921 5.19386 9.51282C5.15676 9.52762 5.12379 9.54169 5.09219 9.55324C5.31478 8.84879 5.56692 8.17394 5.84069 7.53517C6.12615 6.86861 6.43359 6.2414 6.75134 5.65496C6.76783 5.65135 6.80321 5.64413 6.84993 5.63403C6.88256 5.62789 6.92138 5.61634 6.96225 5.60588H6.96294C6.96603 5.62248 6.97599 5.64485 6.99317 5.67264C7.03989 5.74734 7.1371 5.85561 7.27279 5.95882C7.37344 6.03533 7.49469 6.10931 7.6321 6.16381C8.04191 6.34533 8.59186 6.36337 9.23079 6.25583C9.25209 6.25294 9.27339 6.24933 9.29469 6.24573C9.9106 6.12808 10.4046 5.65207 10.7653 5.31248C10.8934 5.18256 11.0043 5.07032 11.0936 4.97541C11.2142 4.84802 11.2949 4.75238 11.3248 4.68887C11.3365 4.66433 11.3403 4.64448 11.3358 4.63004C11.32 4.55245 11.1548 4.41748 10.9006 4.31968C10.8068 4.28323 10.7003 4.25256 10.5849 4.23126C10.1548 4.13996 9.59938 4.18363 9.01644 4.29153C8.9948 4.29586 8.97282 4.30055 8.95118 4.30561C8.40053 4.43264 7.92752 4.76321 7.57267 5.01366C7.47099 5.08981 7.37927 5.1591 7.29958 5.22262C7.12817 5.35867 7.01241 5.46585 6.97496 5.54777C6.96741 5.54886 6.95951 5.54994 6.95195 5.55102C6.91073 5.5568 6.87363 5.56329 6.83996 5.56546C6.82485 5.5669 6.81077 5.56834 6.7984 5.56943C6.96088 5.27242 7.12576 4.98551 7.29168 4.71088C7.60565 4.1912 7.92305 3.71339 8.23427 3.27564C8.3095 3.31173 8.48022 3.2825 8.71622 3.20527C8.81068 3.17423 8.91511 3.13561 9.02881 3.09014C9.41491 2.92558 9.89617 2.67332 10.2527 2.23665C10.2665 2.21933 10.2806 2.202 10.2946 2.18468C10.6509 1.70831 10.9607 1.23736 11.1349 0.836774C11.1836 0.730313 11.2218 0.627821 11.2493 0.53363C11.3252 0.279927 11.3283 0.085771 11.2771 0.0309164C11.2685 0.0190072 11.2503 0.0110677 11.2235 0.00637621C11.1538 -0.00661567 11.0263 0.000602043 10.8532 0.0247814C10.7244 0.0421039 10.5712 0.0691703 10.3984 0.104898C9.92949 0.216051 9.31976 0.40335 8.94018 0.904981C8.92713 0.922304 8.91442 0.939626 8.90205 0.95767C8.52007 1.48601 8.26141 1.98547 8.17347 2.42287C8.13981 2.56686 8.12778 2.70544 8.12847 2.82778C8.12916 2.99234 8.15423 3.12695 8.18412 3.20382C8.18893 3.21573 8.19374 3.22584 8.19855 3.23486C7.88011 3.67189 7.55515 4.15006 7.23294 4.67046C7.05294 4.96097 6.87397 5.2652 6.69809 5.58061C6.69672 5.57592 6.69535 5.57087 6.69397 5.56582C6.68367 5.53189 6.67611 5.49328 6.66615 5.45106C6.66443 5.44348 6.66271 5.43554 6.66065 5.4276C6.71939 5.3612 6.77264 5.2089 6.83138 4.99165C6.85851 4.89096 6.88668 4.77584 6.91725 4.64881C7.01069 4.21069 7.13229 3.6275 7.04504 3.04251C7.0416 3.01941 7.03783 2.99631 7.0337 2.97358C6.9176 2.36404 6.75477 1.80395 6.51775 1.41636C6.45695 1.31134 6.39134 1.21823 6.3247 1.13956C6.14573 0.926273 5.96607 0.812955 5.89153 0.825947C5.87711 0.826669 5.86096 0.837856 5.84344 0.858066C5.7981 0.910394 5.74245 1.02407 5.67306 1.18864C5.62119 1.31062 5.56176 1.46002 5.49306 1.63253C5.32268 2.10853 5.08016 2.76535 5.19902 3.41097C5.20314 3.43298 5.20795 3.455 5.2131 3.47701C5.34982 4.14176 5.5652 4.67335 5.87504 5.00861C5.97329 5.12337 6.08287 5.2154 6.18695 5.28577C6.32779 5.38104 6.45936 5.43698 6.54248 5.45575C6.5734 5.46224 6.59676 5.46405 6.61256 5.46116V5.46188C6.6184 5.50591 6.62218 5.54813 6.62871 5.58206C6.63558 5.62356 6.64107 5.65604 6.64416 5.67589C6.33157 6.24212 6.02859 6.84768 5.7452 7.49006C5.45115 8.15662 5.18012 8.86395 4.94104 9.60377C4.94035 9.6016 4.93967 9.60016 4.93864 9.59799C4.92318 9.56118 4.90978 9.51824 4.89329 9.47168C4.89054 9.46338 4.88745 9.45472 4.88436 9.44606C4.9431 9.36306 4.98501 9.18369 5.0252 8.92927C5.04409 8.81126 5.06196 8.67737 5.08154 8.52941C5.13478 8.02092 5.2028 7.34426 5.03344 6.69286C5.02692 6.66724 5.02005 6.64162 5.01249 6.61636C4.80776 5.9415 4.55597 5.32836 4.24097 4.92092C4.15921 4.8094 4.07368 4.71305 3.98883 4.63257C3.7604 4.41459 3.54364 4.31066 3.46051 4.33484C3.44402 4.33772 3.42719 4.35216 3.40967 4.37742C3.36467 4.44238 3.31555 4.5788 3.25681 4.7744C3.21284 4.91911 3.16338 5.09667 3.10635 5.30093C2.97067 5.86319 2.77452 6.63909 2.98681 7.35437C2.99437 7.37891 3.00227 7.40345 3.01051 7.42727C3.24513 8.16167 3.5536 8.73584 3.94452 9.07435C4.06956 9.19127 4.2049 9.28077 4.33165 9.34718C4.50272 9.43631 4.65833 9.48251 4.75486 9.49225C4.79024 9.49586 4.81703 9.49478 4.83455 9.48937C4.83455 9.48937 4.83455 9.48973 4.83455 9.49009C4.84658 9.53917 4.85585 9.58644 4.86719 9.62434C4.88196 9.67739 4.89295 9.71745 4.89879 9.73765C4.78165 10.1083 4.67173 10.4861 4.57211 10.8723C4.35295 11.72 4.18051 12.6031 4.062 13.5075C4.04311 13.4826 4.02421 13.4559 4.00326 13.4263C3.99811 13.419 3.99295 13.4118 3.98746 13.4043C4.02078 13.3065 4.01082 13.1224 3.97853 12.8673C3.96375 12.7489 3.94383 12.615 3.92116 12.4674C3.83047 11.9643 3.7075 11.2967 3.36433 10.7254C3.35093 10.703 3.33719 10.6803 3.32311 10.6586C2.93975 10.0758 2.52857 9.56696 2.11395 9.27356C2.00506 9.192 1.89617 9.12631 1.79312 9.07507C1.51384 8.93685 1.27751 8.90365 1.20503 8.95273C1.18991 8.96067 1.17789 8.97979 1.16827 9.00903C1.14319 9.08517 1.13392 9.23061 1.1322 9.43559C1.13048 9.58789 1.13255 9.7723 1.13495 9.98594C1.1614 10.5652 1.18922 11.3671 1.59113 11.9863C1.60522 12.0073 1.61964 12.0282 1.63441 12.0488C2.06277 12.6792 2.51689 13.1336 2.9851 13.3375C3.13761 13.4111 3.29151 13.4551 3.43097 13.4797C3.61956 13.5125 3.78101 13.5085 3.87616 13.4887C3.9112 13.4811 3.93662 13.4717 3.95173 13.4613C3.95173 13.4613 3.95173 13.4616 3.95208 13.462C3.97681 13.5053 3.99914 13.5479 4.02043 13.5804C4.03005 13.5959 4.03898 13.61 4.04688 13.6226C4.0036 13.968 3.96753 14.3162 3.9404 14.6666C3.86001 15.7164 3.84834 16.7854 3.91601 17.8529C3.90364 17.841 3.89162 17.8294 3.87822 17.8168C3.87169 17.8103 3.86482 17.8042 3.85795 17.7977C3.87341 17.6916 3.8291 17.5057 3.74872 17.2524C3.71162 17.1347 3.66628 17.003 3.61578 16.8572C3.42994 16.3635 3.17952 15.7089 2.72403 15.1979C2.70617 15.1776 2.68796 15.1578 2.66975 15.1383C2.17063 14.6237 1.65709 14.1903 1.18029 13.977C1.05423 13.9163 0.930905 13.872 0.816516 13.8409C0.506327 13.7576 0.259687 13.7724 0.194763 13.8373C0.181023 13.8485 0.172092 13.8705 0.16797 13.9023C0.156634 13.9853 0.174496 14.1347 0.210908 14.3444C0.237359 14.4995 0.273771 14.6872 0.316022 14.9037C0.451022 15.488 0.62896 16.2989 1.15384 16.8467C1.17205 16.8651 1.19094 16.8839 1.20949 16.9016C1.76357 17.4552 2.31078 17.8247 2.82536 17.9359C2.99437 17.9792 3.1596 17.9925 3.30628 17.9886C3.50414 17.9832 3.66799 17.9464 3.76108 17.9063C3.79543 17.8915 3.81948 17.8767 3.83288 17.863C3.83288 17.863 3.83322 17.8634 3.83356 17.8637C3.86654 17.902 3.89643 17.9402 3.92425 17.9687C3.93971 18.1954 3.95895 18.4216 3.98162 18.6476C4.11112 19.9052 4.36807 21.1478 4.72772 22.3372C4.72738 22.3372 4.72669 22.3369 4.72635 22.3365C4.7181 22.3311 4.70952 22.3261 4.70093 22.3206C4.69612 22.2044 4.61196 22.0168 4.47593 21.7652C4.41272 21.6483 4.33818 21.5184 4.25539 21.3748C3.95895 20.8915 3.56219 20.2513 2.97548 19.8092C2.95246 19.7919 2.9291 19.775 2.90574 19.7584C2.27231 19.3221 1.63991 18.9752 1.09064 18.854C0.944646 18.8175 0.804837 18.7973 0.677051 18.7897C0.330793 18.7699 0.0714432 18.8403 0.0157946 18.9233C0.00342827 18.9381 -0.00138087 18.9633 0.000336678 18.9983C0.00480231 19.0886 0.0539242 19.2441 0.134306 19.4581C0.193389 19.6173 0.269648 19.8085 0.358274 20.0294C0.618655 20.6202 0.970409 21.4423 1.63785 21.9085C1.66086 21.924 1.68457 21.9396 1.70792 21.9544C2.40765 22.4199 3.06273 22.6913 3.63192 22.6956C3.82017 22.7043 3.99811 22.6819 4.15337 22.6454C4.36257 22.596 4.52917 22.5202 4.6202 22.4574C4.65352 22.434 4.67585 22.413 4.68753 22.3954C4.68753 22.3954 4.68822 22.3957 4.68856 22.3961C4.71535 22.417 4.74112 22.4383 4.76516 22.4574C4.7741 22.4859 4.78268 22.5144 4.79161 22.543C4.99154 23.168 5.21963 23.7772 5.47039 24.3676C5.72733 24.9551 6.00558 25.5239 6.30374 26.0684C6.36283 26.1745 6.4226 26.2799 6.48306 26.3842C6.4755 26.3813 6.46829 26.3784 6.46039 26.3756C6.45145 26.3719 6.44184 26.3687 6.43256 26.3651C6.40645 26.2518 6.28897 26.0854 6.10897 25.8663C6.0255 25.7649 5.92863 25.6523 5.82077 25.5282C5.44085 25.1146 4.93314 24.5675 4.27635 24.2536C4.25059 24.2409 4.22448 24.2294 4.19837 24.2175C3.49658 23.9186 2.81197 23.7075 2.25067 23.7003C2.1009 23.6942 1.95972 23.7028 1.83296 23.722C1.4898 23.7729 1.24865 23.8948 1.2088 23.9876C1.19953 24.0049 1.19919 24.0305 1.20743 24.0644C1.22873 24.1521 1.30533 24.2947 1.42384 24.4881C1.51144 24.6321 1.6217 24.8039 1.74915 25.0028C2.11361 25.5293 2.61033 26.264 3.35128 26.5852C3.3767 26.5961 3.40246 26.6062 3.42857 26.6159C4.20078 26.9299 4.89364 27.0627 5.45287 26.9512C5.63871 26.9212 5.80978 26.8631 5.95508 26.7956C6.15123 26.7043 6.30065 26.5961 6.37829 26.5159C6.4068 26.486 6.425 26.4607 6.4329 26.4412C6.4329 26.4412 6.43359 26.4412 6.43394 26.4416C6.47619 26.4629 6.51569 26.4845 6.55142 26.5008C7.09038 27.4178 7.68122 28.2619 8.29851 29.0198C8.54309 29.3189 8.79076 29.6055 9.04015 29.879C9.01679 29.8765 8.9924 29.8736 8.96663 29.8711C8.95702 29.87 8.94705 29.8689 8.93744 29.8682C8.88591 29.7654 8.73339 29.6336 8.50805 29.4676C8.40362 29.3904 8.28339 29.3059 8.15011 29.2132C7.68603 28.9097 7.06668 28.5084 6.35665 28.372C6.32882 28.3666 6.30065 28.3615 6.27249 28.3568C5.5226 28.2467 4.80982 28.2164 4.2633 28.3532C4.11662 28.3857 3.98196 28.4304 3.86311 28.481C3.54227 28.6181 3.33651 28.7982 3.31933 28.8985C3.31418 28.9173 3.32002 28.9425 3.33582 28.9732C3.3767 29.053 3.48422 29.1713 3.64395 29.3287C3.76246 29.446 3.90914 29.5846 4.07883 29.7448C4.55459 30.1623 5.20657 30.748 5.99939 30.8697C6.02688 30.8736 6.05401 30.8769 6.08149 30.8798C6.90317 30.987 7.60599 30.9386 8.12263 30.6874C8.2961 30.6109 8.44828 30.5109 8.57366 30.4085C8.74267 30.2695 8.86255 30.1262 8.91957 30.0284C8.94018 29.9927 8.95186 29.9635 8.9553 29.9422C8.9553 29.9422 8.95599 29.9422 8.95633 29.9422C9.00923 29.9534 9.05938 29.9664 9.10129 29.9725C9.1116 29.9743 9.12156 29.9761 9.13083 29.9776C9.58014 30.4651 10.0332 30.9115 10.4788 31.3179C10.9995 31.7924 11.5083 32.2143 11.9923 32.585C11.9881 32.5857 11.9844 32.5864 11.9802 32.5871C11.9377 32.5951 11.8896 32.5994 11.837 32.6062C11.8274 32.6073 11.8174 32.6088 11.8078 32.6099C11.7367 32.5207 11.5612 32.4258 11.3077 32.3136C11.1902 32.2612 11.0555 32.2053 10.9068 32.1443C10.3915 31.9505 9.70587 31.6961 8.9845 31.7203C8.95633 31.7214 8.92782 31.7224 8.89931 31.7246C8.14393 31.7834 7.44111 31.9123 6.93477 32.1674C6.79771 32.2316 6.67542 32.3053 6.56962 32.3811C6.28313 32.5864 6.11825 32.8083 6.12203 32.9098C6.121 32.9296 6.13165 32.9531 6.15329 32.9794C6.20928 33.0483 6.3381 33.14 6.526 33.2587C6.66512 33.3471 6.83653 33.45 7.03473 33.5687C7.58332 33.8712 8.3387 34.2988 9.13839 34.2418C9.16587 34.2396 9.19335 34.2367 9.22083 34.2338C10.0456 34.1559 10.723 33.9524 11.1771 33.5922C11.3314 33.4785 11.4598 33.3471 11.5619 33.219C11.6993 33.0458 11.7875 32.8794 11.8233 32.7712C11.8363 32.7315 11.8418 32.7001 11.8408 32.6791H11.8422C11.8961 32.6784 11.948 32.6802 11.9902 32.6766C12.04 32.6741 12.0799 32.6719 12.1046 32.6705C12.2544 32.7834 12.4021 32.8924 12.5464 32.9953C12.8624 33.2338 13.175 33.4298 13.4553 33.6257C13.7435 33.808 14.008 33.9758 14.2471 34.1274C14.4913 34.271 14.7098 34.3995 14.8994 34.5114C15.0894 34.6229 15.2522 34.7062 15.3834 34.7795C15.6465 34.9235 15.787 35 15.787 35L16 34.5637C16 34.5637 15.8588 34.489 15.594 34.3482C15.4628 34.2771 15.2958 34.1941 15.1093 34.0873L15.1065 34.0859Z" fill="#491601"/>
</svg>
