<svg width="83" height="17" viewBox="0 0 83 17" fill="none" xmlns="http://www.w3.org/2000/svg">
<path fill-rule="evenodd" clip-rule="evenodd" d="M22.7221 3.32611C26.3533 3.32614 29.5271 6.29811 29.5271 9.95192C29.5269 13.649 26.3547 16.6224 22.7221 16.6224C19.0677 16.6224 15.8948 13.6497 15.8947 9.95192C15.8947 6.29741 19.0691 3.32612 22.7221 3.32611ZM22.7221 6.18902C20.5932 6.18902 18.7576 7.9024 18.7576 9.95192C18.7578 12.0483 20.5955 13.7595 22.7221 13.7595C24.8464 13.7595 26.6636 12.0503 26.6637 9.95192C26.6637 7.90037 24.8488 6.18905 22.7221 6.18902Z" fill="#2C0D00"/>
<path fill-rule="evenodd" clip-rule="evenodd" d="M42.875 16.5554H40.5196L40.2949 15.5079C39.2837 16.157 38.0858 16.6224 36.9208 16.6224C33.1995 16.6224 30.4292 13.6274 30.4291 9.97427C30.4291 6.32105 33.1994 3.32612 36.9208 3.32611C37.9646 3.32613 39.0293 3.64243 40.0117 4.1424V0H42.875V16.5554ZM36.9208 6.18902C34.8465 6.18902 33.2924 7.84789 33.2924 9.97427C33.2925 12.0593 34.8275 13.7595 36.9208 13.7595C37.9976 13.7595 38.9528 13.3789 40.0117 12.6734V7.0817C38.9732 6.45733 38.0355 6.18903 36.9208 6.18902Z" fill="#2C0D00"/>
<path fill-rule="evenodd" clip-rule="evenodd" d="M50.8116 3.32611C54.351 3.32618 57.1907 6.2063 57.1907 9.95192C57.1907 10.2287 57.1684 10.6253 57.1432 10.8019L57.1046 11.0697H47.2742C47.7679 12.6739 49.1782 13.8266 50.8563 13.8266C52.879 13.8265 53.8968 12.7791 54.2453 12.3691L54.4916 12.0794L56.2477 14.2963L56.0925 14.4901C55.7858 14.8733 54.2045 16.6224 50.8563 16.6224C47.1898 16.6224 44.2529 13.705 44.2528 9.95192C44.2528 6.31437 47.1415 3.32612 50.8116 3.32611ZM50.8116 6.18902C49.2254 6.18902 47.9293 7.09542 47.3985 8.36363H54.0361C53.6333 7.18008 52.3528 6.18908 50.8116 6.18902Z" fill="#2C0D00"/>
<path d="M61.3391 16.5068H58.3726V0.0388033H61.3391V16.5068Z" fill="#2C0D00"/>
<path d="M82.793 16.506H79.8264V0.0396097H82.793V16.506Z" fill="#2C0D00"/>
<path d="M9.83897 3.08473C11.1175 3.08473 12.3341 3.5122 13.2322 4.40388C14.1332 5.29858 14.6716 6.61819 14.6716 8.32004V16.6224H11.5001V8.18581C11.5001 7.08267 10.7077 6.14453 9.54805 6.14453C8.20053 6.14462 6.96455 6.78935 5.53655 7.89854V16.6224H2.365V13.5296L2.31094 7.62523C2.31094 7.16622 2.12866 6.56 1.90767 6.37289C1.66965 6.18588 0.962626 6.21316 0.656539 6.21316C0.401501 6.21316 0 6.37471 0 6.37471V3.6113C0.323049 3.44127 0.423376 3.43333 0.72942 3.34832C1.25034 3.2608 1.57988 3.25782 2.24292 3.25782C2.90585 3.25788 3.4991 3.45594 4.00908 3.72791C4.4021 3.9312 4.76104 4.44448 5.03731 4.90251C5.69949 4.43886 6.45406 4.02066 7.21342 3.70301C8.10025 3.33206 9.02637 3.08482 9.83897 3.08473Z" fill="#2C0D00"/>
<path d="M67.8368 4.25519C67.5209 4.25519 67.1928 4.28556 66.8587 4.34024C65.3946 4.58931 64.1067 5.48232 63.3231 6.78844C62.5455 8.09455 62.3754 9.64974 62.8553 11.0591C63.5539 13.1125 64.9633 14.6616 67.0349 15.6579C68.6326 16.4294 70.3275 16.6298 72.0588 16.2593C74.5617 15.7308 76.4389 14.2971 77.6539 12.0068C78.4679 10.4699 78.7474 8.7628 78.4801 6.94639C78.2006 5.02063 77.338 3.41077 75.9104 2.15933C74.3612 0.798541 72.4598 0.105998 70.2728 0.105998C70.2485 0.105998 70.2242 0.105998 70.206 0.105998C69.6957 0.105998 69.1854 0.172822 68.6569 0.294321L69.2583 3.25889C70.0663 3.09487 70.7467 3.0645 71.4027 3.1617C72.4112 3.31357 73.2921 3.81779 74.1 4.68651C75.2543 5.93187 75.6977 7.42631 75.4183 9.12122C75.0416 11.3932 73.0308 13.1914 70.7345 13.3008C68.6386 13.3919 66.7797 12.2863 65.8745 10.3787C65.4675 9.52216 65.6558 8.5198 66.3423 7.89408C67.0349 7.26228 67.94 7.17116 68.7541 7.65108C69.6349 8.17353 70.0359 9.03617 69.8293 9.96563C69.799 10.1175 69.7443 10.2572 69.6896 10.4091L70.0784 10.3666C71.0139 10.2633 71.9434 10.154 72.879 10.0507C72.9215 10.0507 72.9336 10.0385 72.9336 10.0385C72.9762 9.52216 72.9579 9.06654 72.879 8.62915C72.6481 7.40201 72.0406 6.36319 71.0139 5.45803C70.0966 4.65006 69.0274 4.24304 67.8307 4.24304L67.8368 4.25519Z" fill="#2C0D00"/>
</svg>
