<svg width="11" height="9" viewBox="0 0 11 9" fill="none" xmlns="http://www.w3.org/2000/svg">
<path d="M4.12497 3.27478L4.1252 3.27303L4.12538 3.27127L4.12551 3.26949L4.12558 3.26771L4.12559 3.26591L4.12555 3.2641L4.12545 3.26229L4.12529 3.26048L4.12507 3.25866L4.1248 3.25684L4.12447 3.25502L4.12408 3.25321L4.12363 3.2514L4.12313 3.24959L4.12256 3.2478L4.12194 3.24601L4.12125 3.24424L4.12051 3.24248L4.11971 3.24074L4.11886 3.23901L4.11794 3.23731L4.11697 3.23562L4.11594 3.23396L4.11485 3.23233L4.11371 3.23072L4.11251 3.22915L4.11126 3.2276L4.10995 3.22609L4.1086 3.22461L4.10718 3.22317L4.10572 3.22177L4.10421 3.22041L4.10265 3.21909L4.10104 3.21782L4.09938 3.21659L4.09768 3.21541L4.09594 3.21427L4.09415 3.21319L4.09232 3.21216L4.09045 3.21118L4.08854 3.21026L4.08659 3.2094L4.08461 3.20859L4.0826 3.20785L4.08055 3.20716L4.07847 3.20654L4.07637 3.20598L4.07424 3.20548L4.07208 3.20505L4.0699 3.20468L4.0677 3.20439L4.06548 3.20416L4.06325 3.204L4.061 3.20392L4.05874 3.2039L4.05646 3.20395L4.05418 3.20408L4.0519 3.20428L4.04961 3.20455L4.04732 3.2049L4.04503 3.20532L4.04275 3.20582L4.04047 3.20639L4.0382 3.20703L4.03594 3.20775L4.03369 3.20855L4.03146 3.20941L4.02925 3.21036L4.02705 3.21138L4.02488 3.21247L4.02274 3.21363L4.02062 3.21487L4.01853 3.21618L4.01647 3.21756L4.01445 3.21902L4.01247 3.22054L4.01052 3.22214L4.00862 3.2238L4.00676 3.22553L4.00495 3.22732L4.00318 3.22918L4.00147 3.23111L3.99981 3.2331L3.99821 3.23514L3.99666 3.23725L3.99517 3.23942L3.99375 3.24164L3.99238 3.24392L3.99109 3.24625L3.98986 3.24863L3.9887 3.25106L3.98761 3.25353L3.9866 3.25605L3.98566 3.25862L3.98479 3.26122L3.98401 3.26387L3.9833 3.26655L3.98268 3.26926L3.98214 3.27201L3.98168 3.27478L3.9813 3.27758L3.98102 3.2804L3.98082 3.28325L3.98071 3.28611L3.98069 3.28899L3.98076 3.29188L3.98092 3.29478L3.98117 3.29769L3.98151 3.3006L3.98195 3.30352L3.98248 3.30643L3.9831 3.30934L3.98382 3.31224L3.98463 3.31513L3.98554 3.31801L3.98654 3.32087L3.98763 3.32371L3.98882 3.32653L3.9901 3.32932L3.99147 3.33208L3.99294 3.33481L3.9945 3.33751L3.99615 3.34017L3.99789 3.34278L3.99972 3.34536L4.00164 3.34788L4.00364 3.35036L4.00573 3.35278L4.00791 3.35515L4.01017 3.35745L4.01251 3.3597L4.01493 3.36188L4.01744 3.36399L4.02001 3.36603L4.02267 3.368L4.02539 3.3699L4.02819 3.37171L4.03106 3.37344L4.03399 3.37509L4.03698 3.37666L4.04004 3.37813L4.04316 3.37952L4.04633 3.38081L4.04956 3.38201L4.05284 3.3831L4.05617 3.3841L4.05954 3.385L4.06295 3.3858L4.06641 3.38649L4.0699 3.38707L4.07342 3.38754L4.07698 3.38791L4.08056 3.38816L4.08416 3.3883L4.08779 3.38833L4.09142 3.38824L4.09507 3.38804L4.09874 3.38772L4.1024 3.38728L4.10607 3.38673L4.10974 3.38605L4.1134 3.38526L4.11705 3.38434L4.12069 3.38331L4.12431 3.38216L4.12791 3.38089L4.13148 3.37949L4.13503 3.37798L4.13854 3.37635L4.14202 3.3746L4.14546 3.37274L4.14885 3.37075L4.1522 3.36865L4.15549 3.36644L4.15873 3.36411L4.16191 3.36167L4.16502 3.35911L4.16807 3.35645L4.17105 3.35368L4.17395 3.3508L4.17678 3.34782L4.17952 3.34474L4.18218 3.34156L4.18475 3.33827L4.18723 3.3349L4.18961 3.33143L4.1919 3.32787L4.19408 3.32422L4.19616 3.32049L4.19812 3.31668L4.19998 3.31279L4.20172 3.30882L4.20335 3.30478L4.20486 3.30067L4.20624 3.29649L4.2075 3.29226L4.20863 3.28797L4.20963 3.28362L4.21049 3.27922L4.21123 3.27478L4.21183 3.27029L4.21229 3.26577L4.21261 3.26121L4.21278 3.25663L4.21282 3.25202L4.21271 3.24739L4.21245 3.24274L4.21205 3.23808L4.2115 3.23341L4.2108 3.22874L4.20995 3.22408L4.20895 3.21942L4.2078 3.21477L4.2065 3.21014L4.20505 3.20553L4.20345 3.20095L4.20169 3.1964L4.19979 3.19188L4.19774 3.18741L4.19554 3.18299L4.19319 3.17861L4.19069 3.17429L4.18805 3.17003L4.18526 3.16584L4.18233 3.16172L4.17926 3.15767L4.17604 3.15371L4.17269 3.14983L4.16921 3.14604L4.16558 3.14234L4.16183 3.13874L4.15795 3.13525L4.15395 3.13187L4.14982 3.12859L4.14557 3.12544L4.1412 3.12241L4.13672 3.1195L4.13213 3.11672L4.12743 3.11408L4.12263 3.11157L4.11773 3.10921L4.11274 3.10699L4.10765 3.10492L4.10248 3.10301L4.09723 3.10125L4.0919 3.09965L4.0865 3.09821L4.08103 3.09693L4.07549 3.09583L4.0699 3.09489L4.06426 3.09413L4.05856 3.09355L4.05283 3.09314L4.04705 3.09292L4.04125 3.09287L4.03542 3.09301L4.02957 3.09334L4.02371 3.09385L4.01783 3.09455L4.01196 3.09544L4.00608 3.09652L4.00022 3.0978L3.99437 3.09926L3.98854 3.10091L3.98274 3.10276L3.97698 3.1048L3.97125 3.10703L3.96557 3.10945L3.95994 3.11207L3.95437 3.11487L3.94886 3.11786L3.94342 3.12104L3.93806 3.1244L3.93279 3.12795L3.9276 3.13168L3.92251 3.13559L3.91752 3.13968L3.91263 3.14394L3.90786 3.14838L3.90321 3.15299L3.89868 3.15777L3.89429 3.16271L3.89003 3.1678L3.88591 3.17306L3.88194 3.17847L3.87812 3.18403L3.87446 3.18973L3.87097 3.19557L3.86764 3.20155L3.86449 3.20766L3.86151 3.2139L3.85872 3.22025L3.85612 3.22672L3.85371 3.23331L3.85149 3.23999L3.84947 3.24678L3.84766 3.25365L3.84606 3.26062L3.84467 3.26766L3.8435 3.27478L3.84254 3.28196L3.8418 3.28921L3.84129 3.29651L3.84101 3.30386L3.84095 3.31125L3.84113 3.31867L3.84154 3.32611L3.84218 3.33358L3.84307 3.34105L3.84419 3.34853L3.84555 3.35601L3.84715 3.36347L3.84899 3.37091L3.85107 3.37833L3.8534 3.38572L3.85596 3.39305L3.85877 3.40034L3.86182 3.40758L3.8651 3.41474L3.86863 3.42183L3.8724 3.42884L3.8764 3.43576L3.88063 3.44258L3.8851 3.4493L3.88979 3.4559L3.89471 3.46238L3.89986 3.46874L3.90523 3.47495L3.91082 3.48103L3.91661 3.48695L3.92262 3.49271L3.92884 3.4983L3.93526 3.50372L3.94187 3.50897L3.94868 3.51402L3.95568 3.51888L3.96286 3.52354L3.97021 3.52798L3.97773 3.53222L3.98542 3.53623L3.99327 3.54002L4.00127 3.54357L4.00942 3.54689L4.0177 3.54996L4.02612 3.55278L4.03465 3.55534L4.04331 3.55764L4.05208 3.55968L4.06094 3.56146L4.0699 3.56295L4.07894 3.56417L4.08806 3.56511L4.09725 3.56576L4.1065 3.56612L4.1158 3.56619L4.12514 3.56596L4.13451 3.56544L4.1439 3.56462L4.15331 3.5635L4.16272 3.56207L4.17213 3.56034L4.18153 3.5583L4.1909 3.55596L4.20023 3.55331L4.20952 3.55035L4.21876 3.54708L4.22794 3.54351L4.23704 3.53963L4.24606 3.53544L4.25498 3.53096L4.2638 3.52617L4.27251 3.52108L4.2811 3.51569L4.28955 3.51L4.29786 3.50403L4.30602 3.49776L4.31402 3.49121L4.32184 3.48438L4.32948 3.47727L4.33694 3.46988L4.34419 3.46223L4.35123 3.45432L4.35805 3.44615L4.36465 3.43773L4.37101 3.42907L4.37712 3.42016L4.38299 3.41103L4.38859 3.40167L4.39391 3.39209L4.39897 3.3823L4.40373 3.37231L4.4082 3.36213L4.41238 3.35176L4.41624 3.34122L4.41979 3.33051L4.42302 3.31964L4.42592 3.30862L4.42848 3.29747L4.43071 3.28618L4.4326 3.27478L4.43413 3.26327L4.43531 3.25166L4.43613 3.23997L4.43658 3.2282L4.43667 3.21636L4.43639 3.20447L4.43573 3.19255L4.4347 3.18059L4.43328 3.16861L4.43149 3.15663L4.42931 3.14466L4.42675 3.1327L4.4238 3.12077L4.42046 3.10889L4.41673 3.09706L4.41262 3.08531L4.40813 3.07363L4.40324 3.06204L4.39798 3.05056L4.39233 3.0392L4.3863 3.02798L4.37989 3.01689L4.37311 3.00596L4.36595 2.9952L4.35843 2.98462L4.35055 2.97424L4.3423 2.96406L4.3337 2.95411L4.32475 2.94438L4.31546 2.93489L4.30583 2.92566L4.29587 2.9167L4.28559 2.90801L4.27499 2.89962L4.26409 2.89152L4.25288 2.88374L4.24138 2.87628L4.2296 2.86915L4.21755 2.86237L4.20523 2.85594L4.19266 2.84987L4.17984 2.84418L4.16679 2.83887L4.15352 2.83395L4.14004 2.82944L4.12636 2.82533L4.11249 2.82164L4.09845 2.81837L4.08425 2.81553L4.0699 2.81313L4.05541 2.81118L4.0408 2.80968L4.02608 2.80864L4.01127 2.80806L3.99637 2.80795L3.98141 2.80831L3.9664 2.80914L3.95135 2.81046L3.93628 2.81226L3.9212 2.81455L3.90612 2.81732L3.89108 2.82058L3.87607 2.82434L3.86111 2.82858L3.84622 2.83332L3.83143 2.83856L3.81673 2.84428L3.80215 2.8505L3.7877 2.8572L3.7734 2.86439L3.75927 2.87206L3.74532 2.88022L3.73156 2.88885L3.71802 2.89796L3.70471 2.90753L3.69164 2.91757L3.67883 2.92807L3.6663 2.93901L3.65405 2.9504L3.64211 2.96223L3.6305 2.97448L3.61922 2.98716L3.60828 3.00024L3.59772 3.01373L3.58753 3.02762L3.57773 3.04188L3.56834 3.05652L3.55937 3.07151L3.55084 3.08685L3.54274 3.10253L3.53511 3.11853L3.52794 3.13485L3.52126 3.15145L3.51507 3.16834L3.50939 3.1855L3.50421 3.20291L3.49957 3.22056L3.49546 3.23844L3.49189 3.25651L3.48887 3.27478L3.48641 3.29322L3.48453 3.31182L3.48321 3.33055L3.48248 3.34941L3.48234 3.36836L3.48279 3.38741L3.48385 3.40652L3.4855 3.42567L3.48777 3.44486L3.49064 3.46405L3.49413 3.48323L3.49824 3.50239L3.50297 3.52149L3.50831 3.54053L3.51428 3.55948L3.52086 3.57831L3.52807 3.59702L3.53589 3.61558L3.54433 3.63397L3.55338 3.65217L3.56304 3.67016L3.5733 3.68791L3.58417 3.70542L3.59563 3.72266L3.60768 3.7396L3.62031 3.75623L3.63352 3.77254L3.6473 3.78849L3.66163 3.80408L3.67652 3.81927L3.69194 3.83406L3.7079 3.84842L3.72437 3.86233L3.74135 3.87578L3.75882 3.88875L3.77677 3.90122L3.79519 3.91317L3.81406 3.92459L3.83337 3.93545L3.85311 3.94575L3.87325 3.95547L3.89378 3.96459L3.91468 3.9731L3.93594 3.98097L3.95754 3.98821L3.97945 3.99479L4.00166 4.00071L4.02416 4.00594L4.04691 4.01048L4.0699 4.01432L4.09311 4.01745L4.11651 4.01985L4.14009 4.02153L4.16382 4.02245L4.18769 4.02263L4.21165 4.02206L4.2357 4.02072L4.25982 4.01861L4.28396 4.01573L4.30812 4.01207L4.33226 4.00762L4.35637 4.00239L4.38042 3.99638L4.40437 3.98957L4.42822 3.98198L4.45193 3.9736L4.47548 3.96443L4.49883 3.95447L4.52198 3.94373L4.54488 3.93222L4.56752 3.91992L4.58987 3.90686L4.61191 3.89302L4.6336 3.87844L4.65493 3.8631L4.67586 3.84702L4.69638 3.83021L4.71646 3.81267L4.73608 3.79443L4.7552 3.77548L4.77381 3.75585L4.79189 3.73554L4.8094 3.71458L4.82633 3.69297L4.84265 3.67073L4.85834 3.64788L4.87338 3.62444L4.88775 3.60041L4.90143 3.57583L4.91439 3.55072L4.92662 3.52508L4.9381 3.49895L4.94881 3.47234L4.95872 3.44529L4.96783 3.4178L4.97612 3.38991L4.98356 3.36163L4.99015 3.333L4.99587 3.30404L5.0007 3.27478L5.00463 3.24524L5.00766 3.21545L5.00976 3.18544L5.01093 3.15523L5.01116 3.12486L5.01043 3.09435L5.00875 3.06374L5.00609 3.03305L5.00247 3.00232L4.99786 2.97157L4.99226 2.94084L4.98568 2.91016L4.97811 2.87955L4.96955 2.84905L4.95999 2.8187L4.94944 2.78853L4.9379 2.75856L4.92537 2.72883L4.91185 2.69937L4.89736 2.67022L4.88188 2.6414L4.86544 2.61295L4.84803 2.58491L4.82967 2.55729L4.81037 2.53015L4.79013 2.5035L4.76897 2.47738L4.7469 2.45182L4.72393 2.42686L4.70009 2.40252L4.67538 2.37883L4.64982 2.35583L4.62344 2.33354L4.59624 2.31199L4.56825 2.29121L4.53949 2.27124L4.50998 2.25209L4.47975 2.2338L4.44881 2.2164L4.4172 2.1999L4.38493 2.18433L4.35204 2.16972L4.31856 2.1561L4.2845 2.14347L4.2499 2.13188L4.2148 2.12134L4.17921 2.11186L4.14318 2.10348L4.10673 2.0962L4.0699 2.09005L4.03272 2.08504L3.99523 2.08119L3.95745 2.07851L3.91944 2.07702L3.88121 2.07673L3.84281 2.07766L3.80429 2.0798L3.76566 2.08318L3.72698 2.0878L3.68828 2.09366L3.6496 2.10078L3.61098 2.10916L3.57246 2.11879L3.53408 2.12969L3.49588 2.14186L3.4579 2.15529L3.42018 2.16998L3.38276 2.18593L3.34568 2.20313L3.30899 2.22158L3.27272 2.24128L3.23692 2.26221L3.20162 2.28436L3.16686 2.30773L3.1327 2.3323L3.09916 2.35806L3.06629 2.385L3.03412 2.41309L3.0027 2.44232L2.97206 2.47267L2.94225 2.50412L2.91329 2.53665L2.88524 2.57023L2.85812 2.60485L2.83197 2.64048L2.80683 2.67708L2.78274 2.71464L2.75972 2.75312L2.73781 2.7925L2.71704 2.83274L2.69745 2.8738L2.67906 2.91566L2.66191 2.95829L2.64603 3.00163L2.63144 3.04567L2.61816 3.09035L2.60624 3.13564L2.59568 3.18151L2.58652 3.2279L2.57878 3.27478L2.57248 3.3221L2.56763 3.36983L2.56426 3.41791L2.56239 3.46629L2.56203 3.51495L2.56319 3.56382L2.56589 3.61286L2.57014 3.66202L2.57595 3.71125L2.58333 3.76051L2.59229 3.80974L2.60283 3.8589L2.61496 3.90793L2.62868 3.95678L2.64399 4.0054L2.66089 4.05375L2.67938 4.10176L2.69946 4.14939L2.72111 4.19657L2.74434 4.24328L2.76912 4.28944L2.79547 4.33501L2.82335 4.37994L2.85277 4.42418L2.88369 4.46766L2.91611 4.51035L2.95001 4.55219L2.98536 4.59314L3.02215 4.63313L3.06035 4.67213L3.09994 4.71007L3.14088 4.74692L3.18315 4.78263L3.22672 4.81715L3.27156 4.85043L3.31763 4.88243L3.3649 4.9131L3.41334 4.9424L3.4629 4.97029L3.51354 4.99672L3.56523 5.02166L3.61791 5.04506L3.67156 5.06689L3.72611 5.08711L3.78154 5.10568L3.83778 5.12257L3.89478 5.13775L3.95251 5.15118L4.0109 5.16284L4.0699 5.1727L4.12946 5.18072L4.18953 5.18689L4.25004 5.19118L4.31094 5.19356L4.37218 5.19402L4.43369 5.19254L4.49541 5.18911L4.55728 5.1837L4.61925 5.1763L4.68125 5.1669L4.74321 5.1555L4.80508 5.14208L4.86679 5.12664L4.92827 5.10918L4.98947 5.0897L5.05032 5.06819L5.11074 5.04465L5.17069 5.0191L5.23008 4.99154L5.28886 4.96198L5.34696 4.93043L5.40432 4.89689L5.46087 4.8614L5.51654 4.82397L5.57128 4.7846L5.62501 4.74334L5.67767 4.70019L5.7292 4.65519L5.77953 4.60837L5.82861 4.55975L5.87637 4.50937L5.92275 4.45725L5.9677 4.40345L6.01114 4.34799L6.05303 4.29092L6.0933 4.23228L6.13191 4.17211L6.16878 4.11046L6.20388 4.04738L6.23715 3.98293L6.26854 3.91714L6.29799 3.85008L6.32546 3.7818L6.35091 3.71235L6.37429 3.64181L6.39555 3.57023L6.41465 3.49767L6.43156 3.4242L6.44624 3.34988L6.45864 3.27478L6.46874 3.19897L6.4765 3.12252L6.4819 3.0455L6.4849 2.96798L6.48548 2.89004L6.48362 2.81175L6.47929 2.73319L6.47248 2.65443L6.46317 2.57556L6.45134 2.49665L6.43699 2.41778L6.42011 2.33903L6.40068 2.26049L6.3787 2.18223L6.35417 2.10434L6.3271 2.02689L6.29748 1.94998L6.26532 1.87368L6.23063 1.79808L6.19342 1.72327L6.15371 1.64931L6.11151 1.57631L6.06684 1.50433L6.01972 1.43347L5.97018 1.36381L5.91824 1.29542L5.86394 1.22839L5.8073 1.1628L5.74837 1.09873L5.68718 1.03626L5.62376 0.975473L5.55818 0.916438L5.49046 0.859235L5.42066 0.803938L5.34883 0.750624L5.27502 0.699364L5.19929 0.650229L5.1217 0.603291L5.04231 0.558616L4.96118 0.51627L4.87838 0.476323L4.79397 0.438832L4.70804 0.403863L4.62064 0.371473L4.53185 0.341721L4.44176 0.314659L4.35043 0.290343L4.25796 0.268822L4.16442 0.250146L4.0699 0.234359L3.97448 0.221504L3.87826 0.211624L3.78132 0.204755L3.68376 0.200936L3.58566 0.200195L3.48712 0.202564L3.38824 0.20807L3.28912 0.216739L3.18985 0.228591L3.09053 0.243641L2.99127 0.261909L2.89216 0.283404L2.7933 0.308135L2.6948 0.336107L2.59677 0.367323L2.4993 0.401784L2.40249 0.439484L2.30646 0.480415L2.21132 0.524568L2.11715 0.571925L2.02407 0.622472L1.93219 0.676188L1.8416 0.733044L1.75241 0.793017L1.66473 0.856075L1.57866 0.922182L1.49429 0.991299L1.41174 1.06339L1.3311 1.1384L1.25248 1.21629L1.17597 1.297L1.10167 1.38048L1.02967 1.46668L0.960075 1.55552L0.892972 1.64695L0.828455 1.74089L0.766613 1.83728L0.707535 1.93603L0.651307 2.03709L0.598012 2.14035L0.547733 2.24574L0.500548 2.35317L0.456535 2.46255L0.41577 2.57379L0.378322 2.6868L0.344263 2.80147L0.313658 2.91771L0.286571 3.03541L0.263065 3.15447L0.243194 3.27478L0.227017 3.39623L0.214582 3.5187L0.205937 3.64209L0.201128 3.76627L0.200195 3.89113L0.203178 4.01655L0.21011 4.1424L0.221019 4.26856L0.235934 4.39492L0.254878 4.52133L0.27787 4.64768L0.304922 4.77383L0.33605 4.89965L0.371256 5.02502L0.410547 5.1498L0.453919 5.27387L0.501367 5.39708L0.552883 5.5193L0.608455 5.64041L0.668059 5.76027L0.731678 5.87874L0.799284 5.99569L0.870846 6.11099L0.946329 6.22451L1.02569 6.33612L1.1089 6.44567L1.19589 6.55305L1.28662 6.65812L1.38103 6.76076L1.47906 6.86083L1.58065 6.95822L1.68572 7.05279L1.7942 7.14443L1.90602 7.23301L2.02109 7.31842L2.13933 7.40054L2.26064 7.47925L2.38494 7.55445L2.51212 7.62601L2.64209 7.69385L2.77474 7.75785L2.90995 7.8179L3.04762 7.87392L3.18763 7.92581L3.32986 7.97347L3.47419 8.01683L3.62049 8.05578L3.76863 8.09026L3.91848 8.12018L4.0699 8.14547L4.22275 8.16606L4.3769 8.18189L4.5322 8.19289L4.68849 8.19901L4.84564 8.2002L5.0035 8.1964L5.1619 8.18758L5.32069 8.17369L5.47972 8.15471L5.63882 8.1306L5.79784 8.10133L5.95662 8.0669L6.11498 8.02728L6.27277 7.98247L6.42983 7.93246L6.58597 7.87725L6.74105 7.81686L6.89488 7.75129L7.04731 7.68056L7.19816 7.60469L7.34727 7.52372L7.49447 7.43767L7.63959 7.34658L7.78247 7.25051L7.92293 7.14949L8.06082 7.04359L8.19597 6.93286L8.32821 6.81738L8.45739 6.69721L8.58334 6.57244L8.70591 6.44314L8.82494 6.3094L8.94028 6.17132L9.05177 6.029L9.15927 5.88253L9.26262 5.73204L9.36169 5.57763L9.45633 5.41942L9.54641 5.25754L9.63179 5.09212L9.71233 4.92328L9.78792 4.75118L9.85843 4.57595L9.92374 4.39774L9.98373 4.21671L10.0383 4.03301L10.0873 3.84679L10.1307 3.65824L10.1684 3.46751L10.2002 3.27478" stroke="#491601" stroke-width="0.4" stroke-linecap="round" stroke-linejoin="round"/>
</svg>
