<svg width="7" height="7" viewBox="0 0 7 7" fill="none" xmlns="http://www.w3.org/2000/svg">
<path d="M4.004 1.758C4.004 2.31029 4.45172 2.758 5.004 2.758H6.055C6.41454 2.758 6.706 3.04946 6.706 3.409C6.706 3.76854 6.41454 4.06 6.055 4.06H5.004C4.45171 4.06 4.004 4.50772 4.004 5.06V6.132C4.004 6.4954 3.7094 6.79 3.346 6.79C2.9826 6.79 2.688 6.4954 2.688 6.132V5.06C2.688 4.50771 2.24028 4.06 1.688 4.06H0.650999C0.291462 4.06 0 3.76854 0 3.409C0 3.04946 0.291463 2.758 0.651 2.758H1.688C2.24029 2.758 2.688 2.31028 2.688 1.758V0.657999C2.688 0.294596 2.9826 0 3.346 0C3.7094 0 4.004 0.294597 4.004 0.658V1.758Z" fill="currentColor"/>
</svg>
