<svg width="16" height="16" viewBox="0 0 16 16" fill="none" xmlns="http://www.w3.org/2000/svg">
<path d="M6.375 4.0625C6.375 3.6875 6.375 3.27083 6.375 2.8125C6.375 2.35417 6.375 1.85417 6.375 1.3125C6.375 0.9375 6.5 0.625 6.75 0.375C7 0.125 7.3125 0 7.6875 0C7.8125 0 7.9375 0 8.0625 0C8.1875 0 8.33333 0 8.5 0C8.83333 0 9.125 0.125 9.375 0.375C9.625 0.625 9.75 0.9375 9.75 1.3125C9.75 1.64583 9.75 2.04167 9.75 2.5C9.75 2.95833 9.75 3.45833 9.75 4C9.75 4.45833 9.9375 4.8125 10.3125 5.0625C10.6875 5.35417 11.1042 5.41667 11.5625 5.25C11.8542 5.125 12.2083 4.97917 12.625 4.8125C13 4.6875 13.4375 4.52083 13.9375 4.3125C14.2708 4.1875 14.6042 4.20833 14.9375 4.375C15.2708 4.54167 15.4792 4.8125 15.5625 5.1875C15.6042 5.3125 15.6458 5.45833 15.6875 5.625C15.7708 5.75 15.8333 5.89583 15.875 6.0625C15.9167 6.22917 15.9375 6.375 15.9375 6.5C15.9375 6.70833 15.875 6.89583 15.75 7.0625C15.5833 7.39583 15.3333 7.60417 15 7.6875C14.625 7.8125 14.2292 7.9375 13.8125 8.0625C13.3958 8.1875 12.9375 8.3125 12.4375 8.4375C12.0208 8.5625 11.7292 8.83333 11.5625 9.25C11.4375 9.70833 11.5 10.1042 11.75 10.4375C12 10.7292 12.25 11.0625 12.5 11.4375C12.7917 11.7708 13.0833 12.1458 13.375 12.5625C13.5833 12.8542 13.6667 13.1667 13.625 13.5C13.5833 13.875 13.4167 14.1667 13.125 14.375C13 14.4583 12.875 14.5417 12.75 14.625C12.625 14.7083 12.5 14.8125 12.375 14.9375C12.125 15.1042 11.875 15.1875 11.625 15.1875C11.5417 15.1875 11.4583 15.1875 11.375 15.1875C11.0417 15.1458 10.7708 14.9792 10.5625 14.6875C10.3542 14.3958 10.125 14.0625 9.875 13.6875C9.625 13.3125 9.33333 12.8958 9 12.4375C8.75 12.0625 8.39583 11.875 7.9375 11.875C7.47917 11.875 7.125 12.0625 6.875 12.4375C6.79167 12.5625 6.72917 12.6667 6.6875 12.75C6.60417 12.875 6.52083 13 6.4375 13.125C6.22917 13.4167 6.04167 13.6875 5.875 13.9375C5.70833 14.1875 5.54167 14.4167 5.375 14.625C5.16667 14.9583 4.89583 15.1458 4.5625 15.1875C4.1875 15.2292 3.85417 15.1458 3.5625 14.9375C3.4375 14.8542 3.3125 14.7708 3.1875 14.6875C3.0625 14.5625 2.9375 14.4583 2.8125 14.375C2.52083 14.1667 2.35417 13.875 2.3125 13.5C2.27083 13.1667 2.35417 12.8542 2.5625 12.5625C2.77083 12.2708 3 11.9583 3.25 11.625C3.5 11.2917 3.79167 10.9167 4.125 10.5C4.41667 10.125 4.47917 9.72917 4.3125 9.3125C4.1875 8.85417 3.89583 8.5625 3.4375 8.4375C3.10417 8.35417 2.72917 8.25 2.3125 8.125C1.89583 8 1.4375 7.875 0.9375 7.75C0.604167 7.625 0.354167 7.41667 0.1875 7.125C0.0625 6.91667 0 6.70833 0 6.5C0 6.375 0.0208333 6.25 0.0625 6.125C0.104167 5.95833 0.166667 5.8125 0.25 5.6875C0.291667 5.52083 0.333333 5.35417 0.375 5.1875C0.5 4.8125 0.729167 4.5625 1.0625 4.4375C1.35417 4.27083 1.6875 4.25 2.0625 4.375C2.39583 4.5 2.77083 4.625 3.1875 4.75C3.64583 4.91667 4.14583 5.10417 4.6875 5.3125C5.10417 5.4375 5.47917 5.375 5.8125 5.125C6.1875 4.875 6.375 4.52083 6.375 4.0625Z" fill="#D9DBFC"/>
</svg>
