<svg width="11" height="10" viewBox="0 0 11 10" fill="none" xmlns="http://www.w3.org/2000/svg">
<path d="M5.86759 9.72484C5.87672 9.73414 6.15633 9.80526 6.48889 9.88282C6.8215 9.96038 7.09723 10.012 7.10166 9.99759C7.10606 9.98314 7.14047 9.74889 7.1781 9.477C7.2537 8.93102 7.43672 8.29355 7.6323 7.89487C8.2419 6.65237 9.33564 5.82966 10.6622 5.61583L11 5.56136V5.01249V4.46357L10.6938 4.41144C8.6879 4.06995 7.38013 2.54799 7.13549 0.270371C7.11953 0.121645 7.10044 0 7.09309 0C7.02544 0 5.90446 0.274135 5.88326 0.295851C5.86793 0.311554 5.87933 0.450981 5.90864 0.605634C6.23302 2.31815 7.1618 3.71167 8.36707 4.29433L8.65619 4.43411L2.71092 4.44505L-2.86697e-05 4.452L-2.86697e-05 5.56284L2.72059 5.5698L8.65184 5.58079L8.28683 5.76845C7.33993 6.25525 6.59025 7.21016 6.14877 8.4919C6.02296 8.85705 5.83313 9.68954 5.86759 9.72484Z" fill="#491601"/>
</svg>
